<?xml version="1.0" standalone="no"?>
<!DOCTYPE svg PUBLIC "-//W3C//DTD SVG 20010904//EN"
 "http://www.w3.org/TR/2001/REC-SVG-20010904/DTD/svg10.dtd">
<svg version="1.0" xmlns="http://www.w3.org/2000/svg"
 width="1240.000000pt" height="1240.000000pt" viewBox="0 0 1240.000000 1240.000000"
 preserveAspectRatio="xMidYMid meet">
<metadata>
Created by potrace 1.16, written by Peter Selinger 2001-2019
</metadata>
<g transform="translate(0.000000,1240.000000) scale(0.100000,-0.100000)"
fill="#000000" stroke="none">
<path d="M2412 8029 c-105 -13 -212 -47 -328 -104 -393 -191 -711 -617 -843
-1130 -78 -299 -87 -645 -25 -863 75 -262 214 -423 431 -499 71 -25 90 -27
223 -27 191 1 347 38 441 105 30 21 49 18 49 -7 0 -8 9 -23 20 -34 38 -38 264
-21 366 27 37 18 39 20 37 63 0 25 -4 78 -8 118 -5 44 -3 108 5 165 14 108 91
507 126 655 27 118 30 174 10 191 -24 20 -112 24 -291 12 -185 -12 -225 -20
-276 -54 -45 -29 -68 -80 -76 -163 -6 -64 -5 -67 13 -59 10 4 45 15 76 23 98
25 105 1 63 -218 -29 -148 -62 -255 -104 -338 -28 -55 -34 -60 -108 -95 -100
-47 -177 -62 -244 -48 -175 38 -261 176 -289 468 -19 187 14 480 81 733 83
311 236 589 389 703 89 67 157 91 260 90 194 0 333 -112 382 -306 10 -39 20
-72 23 -75 8 -9 116 62 175 116 163 146 161 343 -4 457 -119 82 -362 122 -574
94z"/>
<path d="M7944 7931 c-23 -10 -52 -34 -65 -52 l-24 -34 -3 -1128 c-3 -1257 -7
-1169 66 -1225 l35 -27 409 -5 409 -5 -35 -41 c-124 -145 -423 -245 -864 -288
-340 -34 -496 -31 -1142 19 -1244 98 -1441 110 -2058 125 -615 14 -1202 -3
-2057 -61 -165 -11 -444 -23 -621 -26 l-321 -6 -7 24 c-6 23 -7 24 -21 5 -13
-17 -15 -18 -15 -3 0 20 -16 23 -24 5 -5 -10 -7 -10 -12 0 -8 18 -24 15 -25
-5 0 -13 -3 -11 -10 7 -9 23 -12 23 -23 8 -11 -15 -14 -11 -24 26 -6 24 -29
66 -51 94 -36 45 -46 51 -88 57 -26 3 -56 11 -67 16 -10 6 -61 16 -114 22 -74
9 -97 8 -100 -1 -2 -7 -14 -12 -27 -12 -26 0 -41 -15 -50 -52 -7 -27 -7 -27
-73 -20 -37 4 -89 7 -117 7 -45 0 -50 -2 -53 -24 -2 -13 0 -27 5 -32 5 -5 55
-14 111 -20 l102 -12 0 -33 c0 -20 5 -34 13 -34 6 0 4 -5 -6 -11 -9 -5 -17
-21 -17 -35 l0 -26 -114 7 c-112 7 -114 7 -121 -15 -4 -14 -2 -27 6 -35 11
-10 166 -35 218 -35 6 0 11 -12 11 -26 0 -31 17 -64 32 -64 6 0 20 -8 31 -18
16 -14 43 -17 169 -20 146 -3 152 -2 188 22 37 24 102 97 113 126 4 12 6 11 6
-2 1 -21 17 -24 24 -5 4 9 6 9 6 0 1 -20 31 -15 32 5 0 12 3 10 10 -8 10 -24
11 -24 25 -6 12 17 14 18 14 3 0 -9 5 -17 10 -17 6 0 10 6 10 14 0 11 63 14
348 19 191 3 487 15 657 26 682 46 851 53 1427 58 809 8 1183 -9 2358 -102
806 -64 962 -71 1224 -57 453 25 757 89 980 205 95 49 203 150 231 215 l19 42
191 -2 190 -3 3 -120 c4 -180 17 -165 -148 -165 l-140 0 0 -80 0 -80 588 2
587 3 0 75 0 75 -140 5 -140 5 -3 143 -3 142 658 0 658 0 40 23 c22 13 49 40
62 62 l23 40 0 1115 0 1116 -22 44 c-16 31 -36 51 -67 67 l-44 23 -1601 0
c-1540 0 -1603 -1 -1642 -19z m3146 -1116 l0 -875 -1500 0 -1500 0 0 875 0
875 1500 0 1500 0 0 -875z"/>
<path d="M10165 7431 c-248 -41 -418 -170 -487 -368 -21 -61 -23 -84 -21 -223
2 -247 50 -388 172 -511 109 -108 222 -149 420 -149 135 0 215 17 315 67 130
65 217 183 252 339 15 71 15 76 -1 94 -17 19 -33 20 -235 20 -162 0 -220 -3
-227 -12 -6 -7 -18 -37 -27 -65 -20 -60 -47 -86 -79 -74 -60 23 -78 103 -67
306 10 181 30 225 103 225 32 0 48 -20 58 -77 16 -83 16 -83 228 -82 102 1
197 4 211 8 23 6 25 12 28 80 8 194 -116 351 -323 408 -61 17 -251 25 -320 14z"/>
<path d="M8407 7393 c-9 -9 -7 -1121 2 -1153 l7 -25 233 -3 c164 -2 238 1 247
9 11 9 14 51 14 190 l0 179 78 0 c153 1 302 42 386 106 96 73 136 166 136 315
0 150 -46 251 -146 320 -96 66 -121 69 -558 69 -216 0 -396 -3 -399 -7z m610
-288 c75 -49 57 -177 -30 -215 -63 -27 -103 -32 -118 -14 -13 16 -8 221 6 244
10 16 111 5 142 -15z"/>
<path d="M7330 7872 c-45 -15 -155 -66 -168 -77 -2 -2 4 -24 12 -49 20 -59 20
-153 1 -303 -14 -107 -43 -264 -49 -271 -2 -1 -27 8 -57 21 -124 55 -270 61
-399 18 -327 -110 -623 -518 -741 -1021 -19 -80 -23 -125 -23 -285 -1 -175 1
-194 22 -246 69 -172 186 -246 344 -219 179 31 371 191 546 455 l67 100 0
-155 c0 -126 4 -165 19 -209 55 -158 228 -222 387 -143 167 82 336 278 390
454 33 105 20 169 -31 153 -12 -4 -69 -56 -128 -117 -120 -123 -159 -155 -173
-141 -19 19 -27 109 -18 203 14 140 49 313 164 815 135 585 153 672 161 780 8
110 -5 163 -51 213 l-33 37 -94 2 c-69 2 -107 -2 -148 -15z m-390 -946 c50
-33 100 -108 100 -150 0 -41 -134 -332 -239 -521 -227 -406 -368 -537 -428
-397 -33 78 -11 328 48 538 73 261 216 497 331 550 51 23 137 14 188 -20z"/>
<path d="M3730 7245 c-171 -35 -320 -122 -468 -273 -164 -168 -286 -402 -339
-652 -25 -120 -25 -389 0 -479 58 -213 202 -354 402 -396 449 -95 911 293
1067 895 39 149 51 394 24 500 -38 154 -136 290 -253 353 -115 61 -285 82
-433 52z m126 -271 c42 -20 69 -63 90 -145 24 -94 14 -341 -20 -505 -81 -386
-227 -626 -381 -626 -65 0 -105 27 -137 92 -41 83 -53 185 -39 339 43 472 229
858 414 861 22 0 54 -7 73 -16z"/>
<path d="M5268 7250 c-330 -56 -653 -375 -783 -774 -51 -158 -60 -222 -60
-416 1 -163 3 -181 28 -257 63 -187 188 -306 373 -353 354 -91 752 146 968
576 101 202 146 373 154 585 6 173 -9 259 -64 369 -41 81 -127 172 -202 213
-106 58 -273 80 -414 57z m95 -269 c14 -6 37 -22 51 -38 42 -45 58 -106 63
-248 15 -378 -147 -868 -322 -970 -52 -31 -116 -35 -163 -11 -88 45 -124 193
-103 417 50 540 267 928 474 850z"/>
<path d="M6937 4673 c-4 -3 -7 -41 -7 -83 l0 -77 -45 15 c-89 29 -174 -7 -189
-79 -11 -55 -6 -158 8 -193 20 -49 51 -66 119 -66 32 0 68 5 80 11 16 9 22 9
25 0 2 -6 17 -11 33 -11 l29 0 0 245 0 245 -23 0 c-13 0 -27 -3 -30 -7z m-36
-202 c22 -18 24 -27 24 -110 0 -111 -10 -126 -86 -125 -72 1 -83 16 -88 119
-3 79 -2 85 23 109 31 32 92 35 127 7z"/>
<path d="M5283 4526 c-17 -8 -39 -25 -47 -39 -23 -34 -31 -143 -16 -206 17
-71 44 -91 127 -91 35 0 73 5 85 11 27 15 31 7 23 -41 -10 -57 -27 -70 -90
-70 -57 0 -85 16 -85 51 0 13 -7 19 -24 19 -33 0 -40 -14 -26 -55 17 -52 56
-69 149 -63 68 5 77 8 103 37 l28 31 0 210 0 210 -24 0 c-13 0 -26 -6 -29 -12
-3 -10 -7 -10 -20 0 -24 20 -117 25 -154 8z m130 -47 c34 -18 37 -28 37 -115
0 -107 -15 -129 -89 -129 -76 0 -86 15 -86 126 0 83 2 92 24 110 26 21 81 25
114 8z"/>
<path d="M5781 4531 c-67 -18 -76 -37 -76 -171 0 -111 2 -121 23 -142 19 -19
35 -23 103 -27 140 -6 169 23 169 169 0 88 -16 142 -49 159 -28 15 -129 22
-170 12z m145 -66 c15 -20 20 -181 6 -202 -22 -35 -136 -40 -163 -7 -9 10 -13
48 -14 106 0 84 2 91 25 110 32 26 125 21 146 -7z"/>
<path d="M6280 4530 c-53 -13 -76 -48 -84 -122 -9 -92 5 -167 38 -195 23 -20
38 -23 107 -23 133 0 159 28 159 170 0 93 -14 137 -52 156 -37 19 -120 26
-168 14z m146 -65 c9 -12 14 -48 14 -101 0 -109 -15 -129 -94 -129 -81 0 -91
13 -91 126 0 85 2 92 25 111 32 26 125 22 146 -7z"/>
<path d="M7285 4525 c-24 -8 -41 -11 -43 -5 -2 6 -15 10 -28 10 l-24 0 0 -245
0 -245 25 0 c25 0 25 1 25 86 0 78 2 85 18 78 24 -11 128 -17 158 -10 45 12
64 60 64 163 0 103 -9 135 -43 157 -35 23 -106 29 -152 11z m98 -44 c32 -13
40 -39 40 -130 -1 -91 -19 -116 -87 -116 -60 0 -83 23 -91 89 -10 76 5 138 35
153 30 15 70 16 103 4z"/>
<path d="M7754 4531 c-17 -4 -36 -11 -43 -16 -25 -15 -41 -75 -41 -153 0 -145
25 -172 159 -172 69 0 84 3 107 23 20 17 27 33 28 63 1 36 -1 39 -26 42 -24 3
-28 0 -28 -20 0 -46 -23 -63 -84 -62 -84 0 -96 16 -96 124 0 106 9 121 77 127
61 6 93 -8 93 -42 0 -21 5 -25 30 -25 26 0 30 3 30 29 0 16 -8 39 -17 50 -28
35 -116 49 -189 32z"/>
<path d="M8545 4533 c-11 -3 -26 -10 -32 -15 -9 -7 -13 -7 -13 1 0 6 -13 11
-30 11 l-30 0 0 -170 0 -170 30 0 30 0 0 130 c0 117 2 132 20 150 40 40 110
17 110 -36 0 -19 5 -24 25 -24 22 0 25 4 25 34 0 48 -8 65 -41 81 -28 15 -56
17 -94 8z"/>
<path d="M8930 4530 c-19 -4 -45 -20 -57 -35 -21 -24 -23 -36 -23 -135 0 -101
2 -111 24 -137 22 -25 31 -28 105 -31 141 -7 171 23 170 165 0 98 -15 144 -52
161 -36 17 -122 24 -167 12z m146 -65 c9 -12 14 -48 14 -105 0 -108 -13 -125
-96 -124 -80 0 -89 13 -89 125 0 85 2 92 25 111 32 26 125 22 146 -7z"/>
<path d="M3070 4518 c0 -7 19 -83 43 -168 l42 -155 42 -3 41 -3 33 135 c18 74
36 133 39 130 3 -3 19 -63 35 -132 l30 -127 41 -3 41 -3 43 153 c24 84 45 161
48 171 3 13 -2 17 -26 17 -21 0 -32 -6 -36 -17 -2 -10 -17 -67 -32 -128 -15
-60 -30 -113 -33 -117 -4 -4 -22 53 -40 128 l-33 135 -41 -3 -42 -3 -31 -133
c-18 -74 -34 -135 -36 -138 -2 -2 -19 59 -38 136 -34 139 -34 140 -62 140 -16
0 -28 -5 -28 -12z"/>
<path d="M3701 4513 c0 -10 19 -85 42 -168 l42 -150 42 -3 41 -3 33 136 c18
74 35 133 37 130 3 -3 20 -63 37 -133 l31 -127 40 -3 41 -3 43 153 c23 84 45
161 48 171 3 13 -2 17 -26 17 -29 0 -30 -3 -50 -77 -12 -43 -26 -100 -33 -128
-6 -27 -15 -53 -18 -57 -4 -4 -22 53 -40 128 l-33 135 -41 -3 -41 -3 -35 -140
-35 -140 -35 143 c-35 140 -36 142 -63 142 -20 0 -28 -5 -27 -17z"/>
<path d="M4331 4513 c0 -10 19 -85 42 -168 l42 -150 41 -3 42 -3 32 136 c18
74 35 133 37 131 3 -3 19 -62 37 -133 l32 -128 40 -3 40 -3 43 153 c23 84 45
161 47 171 4 13 -1 17 -25 17 -34 0 -29 10 -72 -165 -12 -49 -25 -93 -29 -98
-3 -4 -21 54 -39 128 l-33 136 -41 -3 -41 -3 -35 -140 -34 -139 -36 139 c-35
135 -37 140 -64 143 -21 3 -27 -1 -26 -15z"/>
</g>
</svg>
